<svg width="593" height="159" viewBox="0 0 593 159" fill="none" xmlns="http://www.w3.org/2000/svg">
<path d="M518.458 133.792L537.549 37.2521C538.17 34.2514 539.567 32.0009 541.74 30.5005C543.913 29.0002 546.189 28.25 548.569 28.25C550.949 28.25 553.147 28.7674 555.165 29.8021C557.183 30.8368 558.813 32.3889 560.054 34.4583L566.263 44.3917C568.125 47.3924 570.531 50.1085 573.48 52.5401C576.429 54.9717 579.817 56.7566 583.646 57.8948V46.875H592.958V133.792H583.646V70.7771C578.679 69.6389 574.075 67.8281 569.832 65.3448C565.59 62.8615 561.917 59.809 558.813 56.1875L555.088 74.8125L568.125 87.2292V133.792H555.708V96.5417L542.671 84.125L531.496 133.792H518.458ZM521.097 72.4844L507.904 70.001C506.249 69.6906 504.955 68.837 504.024 67.4401C503.093 66.0432 502.782 64.4653 503.093 62.7063L507.749 38.3385C508.37 35.0274 510.129 32.4148 513.026 30.5005C515.923 28.5863 519.027 27.9396 522.339 28.5604L529.478 29.9573L521.097 72.4844ZM558.813 25.1458C555.398 25.1458 552.475 23.93 550.043 21.4984C547.612 19.0668 546.396 16.1438 546.396 12.7292C546.396 9.31458 547.612 6.39149 550.043 3.9599C552.475 1.5283 555.398 0.3125 558.813 0.3125C562.227 0.3125 565.15 1.5283 567.582 3.9599C570.013 6.39149 571.229 9.31458 571.229 12.7292C571.229 16.1438 570.013 19.0668 567.582 21.4984C565.15 23.93 562.227 25.1458 558.813 25.1458Z" fill="white"/>
<path d="M0 130L36.0792 80.7984H64.3272L106 33.2368V130H0ZM9.78892 98.1556L0.83905 91.8687L24.8918 58.931H53.1398L79.4301 29L87.8206 36.1069L58.1741 69.8647H30.4855L9.78892 98.1556ZM21.8153 119.066H94.8127V62.7578L69.3615 91.7321H41.6728L21.8153 119.066Z" fill="white"/>
<path d="M126.544 135.376C125.584 134.992 124.592 134.576 123.568 134.128C122.608 133.68 121.68 133.008 120.784 132.112C119.952 131.28 119.216 130.096 118.576 128.56C117.936 126.704 117.488 124.88 117.232 123.088C117.04 121.296 116.976 119.216 117.04 116.848C117.04 113.52 117.264 110.64 117.712 108.208C118.224 105.712 118.992 103.184 120.016 100.624C120.144 100.432 120.368 99.888 120.688 98.992C121.072 98.032 121.488 97.008 121.936 95.92C122.448 94.832 122.832 94 123.088 93.424C123.6 92.336 124.368 90.896 125.392 89.104C126.48 87.248 127.632 85.456 128.848 83.728C130.704 80.976 132.24 78.8 133.456 77.2C134.672 75.6 135.824 74.256 136.912 73.168C138 72.08 139.216 71.056 140.56 70.096C141.968 69.072 143.76 67.824 145.936 66.352C147.344 65.328 148.88 64.784 150.544 64.72C152.272 64.656 153.872 65.04 155.344 65.872C156.816 66.64 157.904 67.792 158.608 69.328C159.312 70.672 159.664 72.304 159.664 74.224C159.664 76.08 159.376 78.064 158.8 80.176C158.224 82.224 157.424 84.176 156.4 86.032C155.376 87.888 154.192 89.424 152.848 90.64C152.016 91.408 151.248 91.696 150.544 91.504C149.904 91.312 149.136 90.8 148.24 89.968C147.664 88.88 147.344 88.24 147.28 88.048C147.28 87.856 147.408 87.728 147.664 87.664C148.048 87.216 148.56 86.448 149.2 85.36C149.84 84.272 150.48 83.12 151.12 81.904C151.76 80.624 152.208 79.6 152.464 78.832C152.976 76.144 153.328 74.256 153.52 73.168C153.712 72.016 153.52 71.152 152.944 70.576C152.688 70.32 152.304 70.224 151.792 70.288C151.344 70.352 150.576 70.672 149.488 71.248C148.016 71.888 146.096 73.328 143.728 75.568C141.36 77.744 139.184 80.176 137.2 82.864C134.64 86.256 132.496 89.264 130.768 91.888C129.04 94.512 127.728 97.2 126.832 99.952C126.704 100.208 126.48 100.688 126.16 101.392C125.904 102.096 125.776 102.448 125.776 102.448C125.84 102.704 125.744 103.344 125.488 104.368C125.232 105.328 124.944 106.16 124.624 106.864C123.92 109.808 123.504 112.88 123.376 116.08C123.248 119.216 123.408 122 123.856 124.432C124.368 126.864 125.104 128.56 126.064 129.52C126.896 130.096 128.016 130.288 129.424 130.096C130.896 129.904 132.56 129.456 134.416 128.752C136.272 128.048 138.16 127.28 140.08 126.448C141.616 125.808 143.024 125.104 144.304 124.336C145.584 123.568 146.544 122.896 147.184 122.32C147.696 121.936 148.336 121.552 149.104 121.168C149.936 120.72 150.64 120.496 151.216 120.496C152.112 120.176 152.624 120.048 152.752 120.112C152.88 120.176 152.944 120.464 152.944 120.976C152.944 121.872 152.432 122.864 151.408 123.952C150.448 125.04 149.2 126.032 147.664 126.928C147.152 127.44 146.48 127.984 145.648 128.56C144.816 129.136 143.952 129.584 143.056 129.904C141.712 130.928 140.048 131.92 138.064 132.88C136.08 133.84 134.064 134.576 132.016 135.088C130.032 135.6 128.208 135.696 126.544 135.376ZM161.553 126.544C161.297 126.032 160.977 125.648 160.593 125.392C160.209 125.072 160.017 124.784 160.017 124.528C160.017 124.272 159.985 124.016 159.921 123.76C159.921 123.44 159.793 123.152 159.537 122.896C159.217 122.512 159.249 121.648 159.633 120.304C160.017 118.896 160.657 117.2 161.553 115.216C162.449 113.168 163.505 111.024 164.721 108.784C165.233 108.272 165.745 107.6 166.257 106.768C166.769 105.936 167.153 105.392 167.409 105.136C167.409 104.88 167.505 104.656 167.697 104.464C167.889 104.208 168.113 104.08 168.369 104.08V103.504C168.369 103.184 168.657 102.64 169.233 101.872C169.873 101.104 170.641 100.272 171.537 99.376C172.433 98.416 173.361 97.52 174.321 96.688C175.281 95.792 176.081 95.152 176.721 94.768C178.065 93.872 179.441 93.328 180.849 93.136C182.321 92.944 183.569 93.264 184.593 94.096C184.785 94.288 185.105 94.608 185.553 95.056C186.001 95.504 186.513 96.016 187.089 96.592C187.729 97.104 188.369 97.648 189.009 98.224L192.561 101.392L190.833 106.192C190.001 108.752 189.777 110.992 190.161 112.912C190.609 114.832 191.249 116.496 192.081 117.904C192.401 118.608 193.041 119.28 194.001 119.92C195.025 120.56 195.985 120.944 196.881 121.072C197.393 121.136 197.873 121.328 198.321 121.648C198.769 121.968 198.993 122.48 198.993 123.184C198.993 123.824 198.865 124.336 198.609 124.72C198.353 125.104 197.905 125.36 197.265 125.488C195.153 125.744 193.169 125.232 191.313 123.952C189.521 122.672 187.857 120.56 186.321 117.616C186.065 117.232 185.713 116.528 185.265 115.504C184.881 114.416 184.657 113.712 184.593 113.392C184.337 113.712 183.857 114.32 183.153 115.216C182.449 116.048 181.905 116.656 181.521 117.04C176.977 121.648 173.041 124.752 169.713 126.352C166.449 127.888 163.729 127.952 161.553 126.544ZM165.009 121.168C165.009 121.616 165.681 121.616 167.025 121.168C168.433 120.656 169.937 119.76 171.537 118.48C173.713 116.624 175.889 114.576 178.065 112.336C180.305 110.096 182.097 108.016 183.441 106.096L185.553 102.64C184.913 101.168 184.209 100.176 183.441 99.664C182.737 99.088 182.129 98.8 181.617 98.8C180.785 98.8 179.537 99.568 177.873 101.104C176.273 102.64 174.545 104.688 172.689 107.248C170.833 109.808 169.073 112.624 167.409 115.696C166.769 116.976 166.193 118.224 165.681 119.44C165.233 120.592 165.009 121.168 165.009 121.168ZM236.772 125.584C235.492 125.584 234.436 125.328 233.604 124.816C232.772 124.24 232.068 123.312 231.492 122.032C231.236 121.136 231.012 120.144 230.82 119.056C230.692 117.904 230.628 116.848 230.628 115.888C230.628 114.864 230.724 114.192 230.916 113.872C231.172 113.616 231.268 113.168 231.204 112.528C231.204 111.824 231.204 111.088 231.204 110.32C231.14 109.04 230.82 108.336 230.244 108.208C229.732 108.016 228.964 108.208 227.94 108.784C226.788 109.488 225.284 110.448 223.428 111.664C221.572 112.816 219.62 114.096 217.572 115.504C215.588 116.912 213.7 118.384 211.908 119.92C210.5 121.456 209.636 122.64 209.316 123.472C209.06 124.24 208.676 124.624 208.164 124.624C207.652 124.88 207.204 124.912 206.82 124.72C206.5 124.464 206.02 124.08 205.38 123.568C204.932 123.056 204.484 122.576 204.036 122.128C203.588 121.616 203.3 121.232 203.172 120.976C203.172 120.656 203.268 119.984 203.46 118.96C203.652 117.936 203.876 116.912 204.132 115.888C204.452 114.864 204.676 114.192 204.804 113.872C205.124 113.872 205.38 113.552 205.572 112.912C205.828 112.272 206.212 111.568 206.724 110.8C206.852 110.032 207.172 109.008 207.684 107.728C208.26 106.384 208.772 105.2 209.22 104.176C210.116 102.64 210.724 101.36 211.044 100.336C211.428 99.312 211.684 98.032 211.812 96.496C211.748 96.24 211.812 96.016 212.004 95.824C212.196 95.568 212.42 95.44 212.676 95.44C213.188 94.928 213.796 94.8 214.5 95.056C215.204 95.248 215.844 95.728 216.42 96.496C217.572 98.032 218.02 99.632 217.764 101.296C217.572 102.896 216.548 105.2 214.692 108.208C214.244 109.232 213.892 110.032 213.636 110.608C213.444 111.12 213.348 111.536 213.348 111.856C213.348 111.856 213.668 111.632 214.308 111.184C215.012 110.736 215.78 110.224 216.612 109.648C217.508 109.008 218.212 108.528 218.724 108.208C219.044 107.888 219.78 107.312 220.932 106.48C222.084 105.648 223.3 104.848 224.58 104.08C225.924 103.248 226.916 102.768 227.556 102.64C228.068 102.384 228.612 102.16 229.188 101.968C229.764 101.712 230.18 101.584 230.436 101.584C230.948 101.584 231.588 101.872 232.356 102.448C233.188 102.96 233.956 103.6 234.66 104.368C235.364 105.072 235.78 105.68 235.908 106.192C235.908 106.448 235.908 106.704 235.908 106.96C235.972 107.216 236.036 107.472 236.1 107.728C236.356 108.56 236.484 109.68 236.484 111.088C236.548 112.496 236.516 113.776 236.388 114.928C236.26 116.08 236.036 116.752 235.716 116.944C235.716 116.944 235.716 117.04 235.716 117.232C235.78 117.36 235.94 117.424 236.196 117.424C236.196 117.68 236.196 117.84 236.196 117.904C235.876 117.904 235.748 118.192 235.812 118.768C235.876 119.28 236.068 119.856 236.388 120.496C236.772 121.136 237.156 121.648 237.54 122.032C238.308 122.8 238.628 123.536 238.5 124.24C238.372 124.88 237.796 125.328 236.772 125.584ZM250.806 127.024C249.846 126.896 249.014 126.224 248.31 125.008C247.67 123.728 247.286 122.576 247.158 121.552C247.222 121.04 247.286 120.304 247.35 119.344C247.478 118.384 247.606 117.392 247.734 116.368C247.99 115.152 248.342 113.68 248.79 111.952C249.238 110.16 249.686 108.368 250.134 106.576C250.646 104.784 251.094 103.248 251.478 101.968C251.862 100.688 252.118 99.92 252.246 99.664C252.566 99.152 253.078 99.024 253.782 99.28C254.486 99.536 255.062 99.92 255.51 100.432C255.894 100.944 256.118 101.552 256.182 102.256C256.31 102.96 256.214 103.984 255.894 105.328C255.638 106.672 255.126 108.656 254.358 111.28C253.654 113.84 253.11 115.92 252.726 117.52C252.406 119.056 252.278 120.688 252.342 122.416C252.086 124.592 251.894 125.936 251.766 126.448C251.638 126.896 251.318 127.088 250.806 127.024ZM261.846 88.72C261.59 88.912 261.334 89.008 261.078 89.008C260.886 88.944 260.534 88.752 260.022 88.432C259.574 88.368 258.998 88.08 258.294 87.568C257.654 86.992 257.078 86.416 256.566 85.84C256.118 85.2 255.894 84.816 255.894 84.688C255.83 84.048 255.862 83.248 255.99 82.288C256.182 81.264 256.534 80.368 257.046 79.6C257.558 78.768 258.294 78.32 259.254 78.256C259.51 78.256 259.734 78.288 259.926 78.352C260.118 78.416 260.694 78.64 261.654 79.024C262.166 79.984 262.678 81.072 263.19 82.288C263.702 83.44 263.926 84.592 263.862 85.744C263.798 86.832 263.126 87.824 261.846 88.72ZM273.609 129.424C272.777 129.488 272.105 129.424 271.593 129.232C271.081 128.976 270.441 128.624 269.673 128.176C268.265 127.088 267.209 126 266.505 124.912C265.865 123.76 265.577 122.64 265.641 121.552C265.769 120.976 265.769 120.464 265.641 120.016C265.577 119.568 265.545 119.344 265.545 119.344C265.161 119.024 265.033 118.832 265.161 118.768C265.289 118.64 265.385 118.448 265.449 118.192C265.961 118.064 266.025 117.712 265.641 117.136C265.449 116.624 265.545 115.472 265.929 113.68C266.377 111.824 266.953 110.096 267.657 108.496C267.977 107.792 268.425 106.864 269.001 105.712C269.641 104.56 270.345 103.408 271.113 102.256C271.881 101.04 272.585 100.08 273.225 99.376C274.633 97.776 275.881 96.592 276.969 95.824C278.121 94.992 279.401 94.32 280.809 93.808C282.089 93.296 283.017 93.008 283.593 92.944C284.169 92.88 284.969 93.264 285.993 94.096C287.529 94.544 288.681 95.184 289.449 96.016C290.281 96.784 290.921 98 291.369 99.664C291.881 101.52 292.041 103.728 291.849 106.288C291.721 108.784 290.633 112.016 288.585 115.984C287.369 118.48 286.153 120.368 284.937 121.648C283.785 122.928 282.377 124.272 280.713 125.68C279.497 126.704 278.377 127.504 277.353 128.08C276.329 128.656 275.081 129.104 273.609 129.424ZM281.289 118C282.569 116.08 283.561 114.32 284.265 112.72C285.033 111.056 285.641 108.976 286.089 106.48C286.217 105.776 286.249 104.912 286.185 103.888C286.121 102.8 285.961 101.808 285.705 100.912C285.513 100.016 285.225 99.536 284.841 99.472C284.009 99.152 283.081 99.152 282.057 99.472C281.033 99.728 279.913 100.496 278.697 101.776C277.609 103.056 276.617 104.496 275.721 106.096C274.889 107.696 274.121 109.456 273.417 111.376C272.713 113.296 272.041 115.344 271.401 117.52C270.761 119.952 270.793 121.808 271.497 123.088C272.265 124.368 273.513 124.688 275.241 124.048C276.969 123.344 278.985 121.328 281.289 118ZM327.516 128.848C326.876 128.848 326.204 128.496 325.5 127.792C324.86 127.088 324.284 126.224 323.772 125.2C323.324 124.112 323.1 123.088 323.1 122.128C323.1 121.168 323.324 119.376 323.772 116.752C324.284 114.128 324.892 111.472 325.596 108.784C326.108 107.12 326.268 106.16 326.076 105.904C325.884 105.648 325.02 106 323.484 106.96C322.588 107.408 321.788 107.888 321.084 108.4C320.38 108.848 319.772 109.36 319.26 109.936C318.94 110.192 318.46 110.608 317.82 111.184C317.18 111.76 316.508 112.304 315.804 112.816C314.972 113.456 313.916 114.352 312.636 115.504C311.356 116.656 310.076 117.808 308.796 118.96C307.58 120.112 306.652 121.008 306.012 121.648C305.884 121.904 305.692 122.128 305.436 122.32C305.18 122.512 304.892 122.64 304.572 122.704C304.252 122.704 303.9 122.64 303.516 122.512C302.812 122.32 302.14 121.904 301.5 121.264C300.924 120.624 300.636 119.888 300.636 119.056C300.636 118.416 300.892 117.328 301.404 115.792C301.916 114.192 302.588 112.272 303.42 110.032C304.316 107.792 305.34 105.424 306.492 102.928C306.684 102.608 306.844 102.224 306.972 101.776C307.1 101.264 307.196 100.72 307.26 100.144C307.388 99.568 307.452 99.024 307.452 98.512C307.452 98.192 307.484 97.872 307.548 97.552C307.676 97.168 307.804 96.816 307.932 96.496C308.124 96.112 308.284 95.856 308.412 95.728C308.668 95.216 309.116 95.088 309.756 95.344C310.396 95.536 310.94 95.984 311.388 96.688C312.348 97.584 312.828 98.704 312.828 100.048C312.892 101.392 312.572 103.056 311.868 105.04C311.612 105.488 311.388 105.936 311.196 106.384C311.068 106.768 310.94 107.12 310.812 107.44C310.684 107.696 310.588 107.92 310.524 108.112C310.46 108.24 310.428 108.304 310.428 108.304C310.684 108.304 311.26 108.016 312.156 107.44C313.052 106.864 314.108 106.224 315.324 105.52C316.284 104.816 317.116 104.176 317.82 103.6C318.588 102.96 319.228 102.48 319.74 102.16C320.252 101.776 320.572 101.584 320.7 101.584C320.956 101.584 321.276 101.488 321.66 101.296C322.044 101.104 322.364 100.88 322.62 100.624C322.876 100.368 323.068 100.24 323.196 100.24C323.388 100.176 323.484 100.144 323.484 100.144C323.484 100.144 323.612 100.144 323.868 100.144C324.124 100.08 324.38 99.92 324.636 99.664C325.148 99.28 325.82 99.184 326.652 99.376C327.484 99.504 328.252 99.824 328.956 100.336C329.66 100.848 330.012 101.424 330.012 102.064C330.012 102.32 330.076 102.544 330.204 102.736C330.396 102.864 330.492 102.928 330.492 102.928C331.004 102.928 331.324 103.728 331.452 105.328C331.644 106.928 331.484 108.464 330.972 109.936C330.972 110.896 330.78 112.048 330.396 113.392C330.076 114.736 329.788 116.016 329.532 117.232C329.02 118.832 328.668 120.24 328.476 121.456C328.284 122.672 328.252 123.696 328.38 124.528C328.508 125.36 328.732 126.032 329.052 126.544C329.308 126.992 329.308 127.504 329.052 128.08C328.796 128.592 328.284 128.848 327.516 128.848ZM341.647 126.544C341.391 126.032 341.071 125.648 340.687 125.392C340.303 125.072 340.111 124.784 340.111 124.528C340.111 124.272 340.079 124.016 340.015 123.76C340.015 123.44 339.887 123.152 339.631 122.896C339.311 122.512 339.343 121.648 339.727 120.304C340.111 118.896 340.751 117.2 341.647 115.216C342.543 113.168 343.599 111.024 344.815 108.784C345.327 108.272 345.839 107.6 346.351 106.768C346.863 105.936 347.247 105.392 347.503 105.136C347.503 104.88 347.599 104.656 347.791 104.464C347.983 104.208 348.207 104.08 348.463 104.08V103.504C348.463 103.184 348.751 102.64 349.327 101.872C349.967 101.104 350.735 100.272 351.631 99.376C352.527 98.416 353.455 97.52 354.415 96.688C355.375 95.792 356.175 95.152 356.815 94.768C358.159 93.872 359.535 93.328 360.943 93.136C362.415 92.944 363.663 93.264 364.687 94.096C364.879 94.288 365.199 94.608 365.647 95.056C366.095 95.504 366.607 96.016 367.183 96.592C367.823 97.104 368.463 97.648 369.103 98.224L372.655 101.392L370.927 106.192C370.095 108.752 369.871 110.992 370.255 112.912C370.703 114.832 371.343 116.496 372.175 117.904C372.495 118.608 373.135 119.28 374.095 119.92C375.119 120.56 376.079 120.944 376.975 121.072C377.487 121.136 377.967 121.328 378.415 121.648C378.863 121.968 379.087 122.48 379.087 123.184C379.087 123.824 378.959 124.336 378.703 124.72C378.447 125.104 377.999 125.36 377.359 125.488C375.247 125.744 373.263 125.232 371.407 123.952C369.615 122.672 367.951 120.56 366.415 117.616C366.159 117.232 365.807 116.528 365.359 115.504C364.975 114.416 364.751 113.712 364.687 113.392C364.431 113.712 363.951 114.32 363.247 115.216C362.543 116.048 361.999 116.656 361.615 117.04C357.071 121.648 353.135 124.752 349.807 126.352C346.543 127.888 343.823 127.952 341.647 126.544ZM345.103 121.168C345.103 121.616 345.775 121.616 347.119 121.168C348.527 120.656 350.031 119.76 351.631 118.48C353.807 116.624 355.983 114.576 358.159 112.336C360.399 110.096 362.191 108.016 363.535 106.096L365.647 102.64C365.007 101.168 364.303 100.176 363.535 99.664C362.831 99.088 362.223 98.8 361.711 98.8C360.879 98.8 359.631 99.568 357.967 101.104C356.367 102.64 354.639 104.688 352.783 107.248C350.927 109.808 349.167 112.624 347.503 115.696C346.863 116.976 346.287 118.224 345.775 119.44C345.327 120.592 345.103 121.168 345.103 121.168ZM405.441 129.808C404.993 130.064 404.385 129.968 403.617 129.52C402.913 129.072 402.209 128.4 401.505 127.504C401.057 126.736 400.737 125.904 400.545 125.008C400.417 124.112 400.353 122.864 400.353 121.264C400.417 119.984 400.353 119.152 400.161 118.768C400.033 118.384 399.681 118.448 399.105 118.96C398.529 119.408 397.537 120.336 396.129 121.744C394.529 123.344 392.993 124.592 391.521 125.488C390.113 126.384 388.961 126.8 388.065 126.736C387.617 126.736 387.105 126.512 386.529 126.064C386.017 125.552 385.537 124.944 385.089 124.24C384.641 123.472 384.257 122.704 383.937 121.936C383.553 120.528 383.489 118.736 383.745 116.56C384.065 114.32 384.577 111.984 385.281 109.552C385.985 107.12 386.785 104.816 387.681 102.64C388.641 100.464 389.601 98.704 390.561 97.36C391.585 96.016 392.481 95.344 393.249 95.344C393.761 95.344 394.209 95.6 394.593 96.112C395.041 96.624 395.489 97.424 395.937 98.512C396.193 98.96 396.289 99.344 396.225 99.664C396.225 99.984 395.969 100.368 395.457 100.816C394.881 101.584 394.209 102.736 393.441 104.272C392.737 105.808 392.033 107.472 391.329 109.264C390.689 111.056 390.113 112.784 389.601 114.448C389.089 116.112 388.737 117.488 388.545 118.576C388.353 119.6 388.385 120.112 388.641 120.112C389.537 120.112 390.593 119.76 391.809 119.056C393.089 118.288 394.305 117.36 395.457 116.272C396.801 114.928 397.985 113.456 399.009 111.856C400.097 110.256 401.185 108.56 402.273 106.768C403.105 105.488 403.969 104.08 404.865 102.544C405.825 101.008 406.433 99.92 406.689 99.28C407.585 97.616 408.257 96.496 408.705 95.92C409.153 95.28 409.697 94.864 410.337 94.672C410.657 94.672 410.945 94.672 411.201 94.672C411.521 94.672 411.681 94.672 411.681 94.672C412.065 94.736 412.513 95.024 413.025 95.536C413.537 95.792 413.825 96.048 413.889 96.304C413.953 96.496 413.985 96.752 413.985 97.072C413.729 97.712 413.313 98.672 412.737 99.952C412.225 101.168 411.841 102.064 411.585 102.64C410.369 105.392 409.153 108.112 407.937 110.8C406.785 113.424 405.953 116.112 405.441 118.864C405.313 119.76 405.281 120.816 405.345 122.032C405.473 123.184 405.665 124.016 405.921 124.528C406.113 124.912 406.337 125.36 406.593 125.872C406.913 126.32 407.265 126.704 407.649 127.024C408.225 127.408 408.321 127.824 407.937 128.272C407.617 128.72 407.169 129.104 406.593 129.424C406.017 129.68 405.633 129.808 405.441 129.808ZM427.053 134.8C424.941 134.48 423.501 133.68 422.733 132.4C422.029 131.184 421.869 129.296 422.253 126.736C422.637 125.52 422.861 124.432 422.924 123.472C423.053 122.448 423.341 121.808 423.789 121.552C423.789 121.552 423.821 121.456 423.885 121.264C424.013 121.072 423.981 120.88 423.789 120.688C423.789 119.856 424.077 118.704 424.653 117.232C424.781 116.848 424.941 116.4 425.133 115.888C425.389 115.312 425.517 115.024 425.517 115.024C425.197 114.512 425.197 114.096 425.517 113.776C425.837 113.456 426.157 113.168 426.477 112.912C426.861 112.592 426.893 112.24 426.573 111.856C426.445 111.6 426.605 111.024 427.053 110.128C427.501 109.168 428.013 108.176 428.589 107.152C429.165 106.128 429.549 105.328 429.741 104.752C429.741 104.624 429.901 104.176 430.221 103.408C430.541 102.64 430.925 101.744 431.373 100.72C431.821 99.696 432.237 98.768 432.621 97.936C433.069 97.104 433.357 96.56 433.484 96.304C434.125 95.984 433.869 95.76 432.717 95.632C431.565 95.504 430.349 95.472 429.069 95.536C427.085 95.472 425.485 95.376 424.269 95.248C423.117 95.12 422.157 94.832 421.389 94.384C420.621 93.488 420.333 92.848 420.525 92.464C420.781 92.016 421.549 91.76 422.829 91.696C423.661 91.632 424.301 91.6 424.749 91.6C425.261 91.6 425.901 91.568 426.669 91.504C427.501 91.376 428.781 91.216 430.509 91.024L435.405 90.64L435.693 89.008C436.205 88.176 436.621 87.44 436.941 86.8C437.325 86.096 437.645 85.392 437.901 84.688C438.157 83.984 438.349 83.248 438.477 82.48C438.477 82.48 438.765 81.968 439.341 80.944C439.917 79.856 440.269 78.736 440.397 77.584C441.165 76.304 441.837 75.152 442.413 74.128C442.989 73.04 443.341 72.368 443.469 72.112C444.173 71.536 444.653 71.248 444.909 71.248C445.229 71.248 445.869 71.568 446.829 72.208C447.405 72.528 447.917 72.912 448.365 73.36C448.813 73.808 449.101 74.288 449.229 74.8C449.357 75.248 449.165 75.696 448.653 76.144C448.525 76.4 448.333 76.88 448.077 77.584C447.821 78.224 447.629 78.768 447.501 79.216C447.117 79.664 446.637 80.4 446.061 81.424C445.549 82.384 445.197 83.376 445.005 84.4C444.493 85.488 444.013 86.48 443.565 87.376C443.117 88.208 442.765 88.624 442.509 88.624C442.637 89.264 443.021 89.584 443.661 89.584C444.301 89.52 445.357 89.456 446.829 89.392C448.045 89.264 448.877 89.136 449.325 89.008C449.837 88.816 450.413 88.88 451.053 89.2C451.373 89.648 451.629 90.16 451.821 90.736C452.013 91.312 452.045 91.856 451.917 92.368C451.853 92.816 451.597 93.136 451.149 93.328C450.829 93.328 450.157 93.52 449.133 93.904C448.173 94.224 446.957 94.416 445.485 94.48L440.397 94.96L438.765 98.224C438.317 99.056 437.933 99.824 437.613 100.528C437.293 101.168 437.069 101.552 436.941 101.68C436.941 102.064 436.717 102.64 436.269 103.408C435.885 104.176 435.469 105.008 435.021 105.904C434.637 106.992 434.189 107.984 433.677 108.88C433.229 109.776 433.005 110.224 433.005 110.224C432.749 110.224 432.621 110.416 432.621 110.8C432.941 111.568 432.845 112.144 432.333 112.528C432.013 112.72 431.725 113.008 431.469 113.392C431.277 113.712 431.181 113.872 431.181 113.872C431.437 114.128 431.469 114.448 431.277 114.832C431.149 115.216 430.957 115.632 430.701 116.08C430.701 116.592 430.541 117.328 430.221 118.288C429.965 119.248 429.677 120.144 429.357 120.976C429.421 122.128 429.485 122.864 429.549 123.184C429.613 123.504 429.773 123.632 430.029 123.568C430.349 123.632 430.637 123.632 430.893 123.568C431.149 123.504 431.405 123.472 431.661 123.472C432.557 123.088 432.077 125.328 430.221 130.192C429.197 131.792 428.493 132.944 428.109 133.648C427.725 134.416 427.373 134.8 427.053 134.8ZM456.146 126.832C455.378 126.96 454.546 126.832 453.65 126.448C452.754 126.064 451.954 125.52 451.25 124.816C450.61 124.112 450.194 123.376 450.002 122.608C449.746 121.264 449.906 119.6 450.482 117.616C451.122 115.568 452.018 113.424 453.17 111.184C454.386 108.88 455.73 106.672 457.202 104.56C458.738 102.448 460.306 100.624 461.906 99.088C463.57 97.488 465.106 96.4 466.514 95.824C467.218 95.376 467.762 95.088 468.146 94.96C468.594 94.768 469.042 94.736 469.49 94.864C470.002 94.992 470.738 95.312 471.698 95.824C472.594 96.08 473.266 96.368 473.714 96.688C474.162 97.008 474.738 97.648 475.442 98.608C475.954 99.568 476.338 100.528 476.594 101.488C476.85 102.448 477.074 103.536 477.266 104.752C477.778 106.352 477.97 107.408 477.842 107.92C477.714 108.368 477.522 108.72 477.266 108.976C476.754 109.616 476.626 109.936 476.882 109.936C476.882 109.936 476.85 110.064 476.786 110.32C476.786 110.512 476.658 110.832 476.402 111.28C475.954 112.688 475.602 114.16 475.346 115.696C475.154 117.168 475.186 118.384 475.442 119.344C475.954 120.752 476.882 121.584 478.226 121.84C479.57 122.096 480.946 121.52 482.354 120.112C483.058 119.6 483.73 119.152 484.37 118.768C485.01 118.32 485.33 118.352 485.33 118.864C485.33 118.864 485.426 118.96 485.618 119.152C485.81 119.28 486.034 119.344 486.29 119.344C486.61 119.344 486.802 119.472 486.866 119.728C486.994 119.984 486.994 120.336 486.866 120.784C486.802 121.168 486.61 121.616 486.29 122.128C485.33 123.088 484.85 123.728 484.85 124.048C484.85 124.048 484.722 124.176 484.466 124.432C484.274 124.624 483.922 124.944 483.41 125.392C482.258 126.096 480.786 126.448 478.994 126.448C477.266 126.448 475.922 126.096 474.962 125.392C474.002 124.688 473.106 123.728 472.274 122.512C471.506 121.296 470.994 120.24 470.738 119.344L470.258 118.384L467.474 120.208C466.77 120.912 466.002 121.584 465.17 122.224C464.402 122.864 463.89 123.312 463.634 123.568C463.442 123.824 463.218 124.048 462.962 124.24C462.77 124.432 462.546 124.528 462.29 124.528C462.034 124.528 461.81 124.528 461.618 124.528C461.426 124.528 461.33 124.528 461.33 124.528C461.33 124.784 461.01 125.104 460.37 125.488C459.794 125.872 459.09 126.192 458.258 126.448C457.49 126.704 456.786 126.832 456.146 126.832ZM455.186 121.648C455.57 121.648 456.242 121.36 457.202 120.784C458.226 120.144 459.346 119.408 460.562 118.576C461.842 117.744 462.962 116.912 463.922 116.08C464.946 115.248 465.65 114.608 466.034 114.16C466.29 113.904 466.706 113.488 467.282 112.912C467.858 112.272 468.37 111.728 468.818 111.28C470.29 109.616 471.314 107.792 471.89 105.808C472.466 103.76 472.402 102.16 471.698 101.008C471.442 100.304 471.122 99.92 470.738 99.856C470.354 99.792 469.554 100.016 468.338 100.528C467.57 100.976 466.61 101.84 465.458 103.12C464.37 104.336 463.186 105.776 461.906 107.44C460.69 109.04 459.538 110.704 458.45 112.432C457.362 114.16 456.466 115.76 455.762 117.232C455.058 118.704 454.706 119.856 454.706 120.688C454.706 120.944 454.77 121.168 454.898 121.36C455.09 121.552 455.186 121.648 455.186 121.648ZM495.425 130.384C494.209 129.872 493.057 129.2 491.969 128.368C490.881 127.472 490.177 126.736 489.857 126.16C489.857 125.584 489.953 125.2 490.145 125.008C490.337 124.752 490.881 124.656 491.777 124.72C492.737 124.72 494.273 124.848 496.385 125.104C497.153 125.104 498.113 125.04 499.265 124.912C500.417 124.784 501.473 124.592 502.433 124.336C503.457 124.08 504.033 123.76 504.161 123.376C504.481 123.376 504.545 123.28 504.353 123.088C504.161 122.832 503.937 122.576 503.681 122.32C503.425 122.32 503.137 122.224 502.817 122.032C502.497 121.776 502.209 121.648 501.953 121.648C501.953 121.328 501.633 120.976 500.993 120.592C500.417 120.144 499.809 119.792 499.169 119.536C497.761 118.384 496.545 117.36 495.521 116.464C494.497 115.504 494.113 114.864 494.369 114.544C494.369 114.288 494.369 114.16 494.369 114.16C494.369 114.096 494.369 114.064 494.369 114.064C493.921 114.064 493.409 113.424 492.833 112.144C492.321 110.864 492.065 109.712 492.065 108.688C492.065 107.92 492.289 106.96 492.737 105.808C493.185 104.592 493.793 103.344 494.561 102.064C495.329 100.784 496.129 99.728 496.961 98.896C498.113 97.808 499.553 96.656 501.281 95.44C503.009 94.16 504.705 93.04 506.369 92.08C508.097 91.056 509.537 90.384 510.689 90.064C511.841 89.616 512.897 89.392 513.857 89.392C514.881 89.392 515.777 89.616 516.545 90.064C517.185 90.384 517.761 90.864 518.273 91.504C518.849 92.08 519.329 92.688 519.713 93.328C520.161 93.904 520.449 94.416 520.577 94.864C520.577 95.632 520.513 96.496 520.385 97.456C520.257 98.352 520.065 99.152 519.809 99.856C519.617 100.56 519.297 100.912 518.849 100.912C518.849 100.912 518.753 100.944 518.561 101.008C518.433 101.008 518.369 101.168 518.369 101.488C518.369 102.128 517.889 102.864 516.929 103.696C515.713 104.528 514.657 105.04 513.761 105.232C512.865 105.36 512.321 105.008 512.129 104.176C511.937 103.92 511.809 103.696 511.745 103.504C511.681 103.312 511.521 103.216 511.265 103.216C511.265 103.216 511.169 103.12 510.977 102.928C510.785 102.736 510.689 102.416 510.689 101.968C510.689 101.712 510.785 101.488 510.977 101.296C511.169 101.04 511.265 100.912 511.265 100.912C511.585 100.912 512.001 100.56 512.513 99.856C513.025 99.088 513.473 98.288 513.857 97.456C514.305 96.56 514.529 95.952 514.529 95.632C514.529 95.248 514.465 95.024 514.337 94.96C514.273 94.896 513.985 94.864 513.473 94.864C512.577 95.248 511.489 95.76 510.209 96.4C508.929 97.04 507.713 97.68 506.561 98.32C505.473 98.896 504.673 99.44 504.161 99.952C503.905 100.4 503.745 100.688 503.681 100.816C503.617 100.88 503.457 100.912 503.201 100.912C503.201 100.656 502.977 100.784 502.529 101.296C502.145 101.744 501.633 102.384 500.993 103.216C500.417 104.048 499.841 104.88 499.265 105.712C498.753 106.48 498.369 107.056 498.113 107.44C497.985 107.568 497.825 107.952 497.633 108.592C497.505 109.168 497.441 109.712 497.441 110.224C497.185 110.992 497.217 111.536 497.537 111.856C497.857 112.112 498.561 112.688 499.649 113.584C501.889 115.248 503.649 116.624 504.929 117.712C506.209 118.8 507.169 119.696 507.809 120.4C508.449 121.104 508.833 121.744 508.961 122.32C510.113 124.24 510.465 125.712 510.017 126.736C509.569 127.76 508.481 128.656 506.753 129.424C506.113 129.744 505.057 130 503.585 130.192C502.113 130.384 500.609 130.48 499.073 130.48C497.537 130.544 496.321 130.512 495.425 130.384Z" fill="white"/>
</svg>
